<?xml version="1.0" standalone="no"?>
<!DOCTYPE svg PUBLIC "-//W3C//DTD SVG 1.1//EN" "http://www.w3.org/Graphics/SVG/1.1/DTD/svg11.dtd" >
<svg xmlns="http://www.w3.org/2000/svg">
<metadata>Generated by IcoMoon</metadata>
<defs>
<font id="icomoon" horiz-adv-x="1024">
<font-face units-per-em="1024" ascent="960" descent="-64" />
<missing-glyph horiz-adv-x="1024" />
<glyph unicode="&#x20;" d="" horiz-adv-x="512" />
<glyph unicode="&#xe600;" d="M78.336 704c-32.768 0-40.832-19.2-17.92-45.184l393.28-443.712c22.912-25.856 60.416-25.408 83.392 0.448l393.28 443.008c22.912 25.92 14.784 45.44-17.984 45.44h-834.048z" />
<glyph unicode="&#xe601;" d="M691.904 32.128c-24.576 0-49.152 9.344-67.904 28.096l-387.904 387.904 387.904 387.84c37.504 37.504 98.24 37.504 135.744 0s37.504-98.304 0-135.744l-252.096-252.096 252.096-252.096c37.504-37.504 37.504-98.24 0-135.744-18.752-18.816-43.392-28.16-67.84-28.16z" />
<glyph unicode="&#xe602;" d="M332.096 32.064c-24.576 0-49.152 9.344-67.904 28.032-37.504 37.504-37.504 98.24 0 135.744l252.16 252.16-252.096 252.16c-37.504 37.504-37.504 98.304 0 135.744 37.504 37.504 98.304 37.504 135.744 0l387.904-387.904-387.904-387.904c-18.752-18.752-43.328-28.032-67.904-28.032z" />
<glyph unicode="&#xe603;" d="M512 896c-247.424 0-448-200.576-448-448 0-247.36 200.576-448 448-448s448 200.64 448 448c0 247.424-200.576 448-448 448zM733.056 324.352c26.88-26.88 26.88-70.592 0-97.408-13.504-13.44-31.104-20.16-48.832-20.16-17.6 0-35.264 6.72-48.768 20.16l-123.456 123.712-123.584-123.712c-13.44-13.44-31.104-20.16-48.768-20.16s-35.264 6.72-48.768 20.16c-26.88 26.944-26.88 70.592 0 97.408l123.712 123.648-123.648 123.584c-26.88 26.88-26.88 70.528 0 97.472 26.944 26.88 70.592 26.88 97.472 0l123.584-123.648 123.648 123.648c26.88 26.88 70.592 26.88 97.408 0 26.88-26.944 26.88-70.592 0-97.472l-123.712-123.584 123.712-123.648z" />
<glyph unicode="&#xe604;" d="M512 896c-247.424 0-448-200.576-448-448 0-247.36 200.576-448 448-448s448 200.64 448 448c0 247.424-200.576 448-448 448zM767.488 537.536l-325.376-325.312-185.6 185.536c-26.944 26.88-26.944 70.592 0 97.472 26.88 26.944 70.592 26.944 97.408 0l88.192-88.192 227.968 227.968c26.88 26.944 70.528 26.944 97.344 0 27.008-26.88 27.008-70.528 0.064-97.472z" />
<glyph unicode="&#xe605;" d="M83.968-64c-21.504 0-43.008 8.192-59.392 24.576-32.832 32.832-32.832 85.952 0 118.784l856.064 856c32.896 32.832 86.016 32.832 118.72 0 32.768-32.832 32.832-86.016 0-118.784l-856-855.936c-16.384-16.448-37.888-24.64-59.392-24.64zM940.032-64c-21.504 0-43.008 8.192-59.392 24.64l-856 856c-32.832 32.832-32.832 86.016 0 118.72 32.832 32.832 85.952 32.832 118.72 0l856-856c32.832-32.896 32.832-86.016 0-118.72-16.384-16.448-37.888-24.64-59.328-24.64z" />
<glyph unicode="&#xe606;" d="M1024 288.832v465.408l-228.16-237.248zM513.408 381.568l453.12 471.296c-4.992 1.152-10.304 1.856-15.68 1.856h-877.696c-4.544 0-9.088-0.576-13.44-1.344l453.696-471.808zM231.36 516.544l-231.36 240.704v-472.064zM719.808 437.952l-206.4-214.656-206.016 214.208-307.392-307.52v-15.552c0-40.256 32.96-73.152 73.152-73.152h877.696c40.192 0 73.152 32.896 73.152 73.152v19.264l-304.192 304.256z" />
<glyph unicode="&#xe607;" d="M904 896h-784c-26.816 0-56-29.184-56-56v-784c0-26.816 29.184-56 56-56h456v384h-128v128h128v101.376c0 107.968 55.68 161.024 161.152 161.024 63.424 0 94.848-6.4 94.848-6.4v-128h-54.528c-45.248 0-73.472 5.824-73.472-42.24v-85.76h140.352l-17.216-128h-123.136v-384h200c26.816 0 56 29.184 56 56v784c0 26.816-29.184 56-56 56z" />
<glyph unicode="&#xe608;" d="M380.416-1.6c0 0-308.544 97.216-292.416 301.376 12.48 158.656 70.656 200.768 165.696 290.176 91.968 86.464 201.28 158.848 217.408 304.384 51.392-27.456 214.208-103.104 292.928-282.368 39.872-90.816 43.264-245.248-33.344-374.016 0 0 117.312 30.656 112.576 208.32 35.968-63.552 101.184-171.264 52.736-291.776-27.2-67.52-118.464-136.768-271.68-156.096 43.776 57.984 71.936 183.744-46.848 265.344 1.536-32.064 1.6-78.144-69.504-139.392-53.568 33.536-77.504 68.288-93.248 133.824-15.552 65.6 15.808 114.304 15.808 114.304s-109.504-74.624-120.384-194.432c-11.072-119.808 70.272-179.648 70.272-179.648z" />
<glyph unicode="&#xe609;" d="M128 832h384c32.64 0 59.072 31.36 59.072 64s-26.432 64-59.072 64h-413.504c-54.336 0-98.496-44.096-98.496-98.432v-413.568c0-32.64 31.36-59.072 64-59.072s64 26.432 64 59.072v384zM960 507.072c-32.64 0-64-26.432-64-59.072v-384h-344.64c-32.64 0-59.072-31.36-59.072-64s26.432-64 59.072-64h374.144c54.4 0 98.496 44.096 98.496 98.432v413.568c0 32.64-31.36 59.072-64 59.072zM764.583 618.796l-456.164-456.164-111.371 111.371 456.164 456.164 111.371-111.371zM875.648 729.728c0 0.064 0 0.064 0 0.128l23.488 23.424c30.72 30.72 30.72 80.64 0 111.36s-80.64 30.72-111.36 0l-2.112-2.048-83.136-83.328 111.36-111.296 61.76 61.76zM112.576 79.936l142.4 21.248-118.976 119.040z" />
<glyph unicode="&#xe60a;" d="M511.936-48c-252.544 0-458.048 205.504-458.048 458.112 0 131.136 56.704 256.32 155.52 343.488 33.024 29.184 83.648 26.176 112.896-7.104 29.184-33.152 26.048-83.712-7.104-112.896-64.384-56.768-101.312-138.24-101.312-223.488 0-164.352 133.696-298.112 298.048-298.112 164.416 0 298.176 133.76 298.176 298.112 0 85.248-36.928 166.656-101.376 223.488-33.152 29.248-36.288 79.744-7.104 112.896 29.248 33.088 79.744 36.288 112.896 7.104 98.88-87.168 155.648-212.352 155.648-343.488-0.064-252.608-205.568-458.112-458.24-458.112zM512 466.048c-44.16 0-80 35.84-80 80v317.952c0 44.16 35.84 80 80 80 44.096 0 80-35.84 80-80v-317.952c0-44.224-35.904-80-80-80z" />
<glyph unicode="&#xe60b;" d="M896 675.2h-768c-44.16 0-80 35.84-80 80s35.84 80 80 80h768c44.096 0 80-35.84 80-80s-35.904-80-80-80zM896 368h-768c-44.16 0-80 35.904-80 80 0 44.16 35.84 80 80 80h768c44.096 0 80-35.84 80-80 0-44.096-35.904-80-80-80zM896 60.8h-768c-44.16 0-80 35.84-80 80s35.84 80 80 80h768c44.096 0 80-35.84 80-80s-35.904-80-80-80z" />
<glyph unicode="&#xe60c;" d="M224 64.064c-24.576 0-49.152 9.344-67.904 28.032-37.504 37.504-37.504 98.24 0 135.744l576 576c37.504 37.504 98.24 37.504 135.744 0s37.504-98.304 0-135.744l-576-576c-18.688-18.752-43.264-28.032-67.84-28.032zM800 64c-24.576 0-49.152 9.344-67.904 28.096l-576 576c-37.504 37.44-37.504 98.304 0 135.744 37.504 37.504 98.24 37.504 135.744 0l576-576c37.504-37.504 37.504-98.24 0-135.744-18.688-18.752-43.264-28.096-67.84-28.096z" />
<glyph unicode="&#xe60d;" d="M250.752 606.656c-19.392 0-38.080-2.432-56.064-6.784l153.6 122.112-34.496 43.328h0.064l-14.464 17.728-203.328-164.352c-124.288-101.504-96.32-276.288-43.584-362.88 0.128-0.256 11.52-0.512 11.52-0.704l-11.52-0.128c28.608-59.904 119.168-124.032 209.344-124.032 131.456 0 232.32 106.496 232.32 237.824 0 131.456-111.936 237.888-243.392 237.888zM780.48 606.656c-19.392 0-38.144-2.432-56-6.784l153.6 122.112-18.112 22.656-16.384 20.672-14.528 17.728-203.2-164.352c-124.288-101.568-105.216-276.288-52.416-362.944 0.128-0.192 2.56-0.448 2.56-0.64l-2.56 0.64c48.576-75.776 119.168-124.736 209.344-124.736 131.456 0 236.736 106.496 236.736 237.888 0 131.328-107.52 237.76-239.040 237.76z" />
<glyph unicode="&#xe60e;" d="M472.832 554.624c0-35.2-28.8-64-64-64h-280.832c-35.2 0-64 28.8-64 64v181.376c0 35.2 28.8 64 64 64h280.832c35.2 0 64-28.8 64-64v-181.376zM960 554.624c0-35.2-28.8-64-64-64h-280.896c-35.136 0-64 28.8-64 64v181.376c0 35.2 28.864 64 64 64h280.896c35.2 0 64-28.8 64-64v-181.376zM472.832 160c0-35.2-28.8-64-64-64h-280.832c-35.2 0-64 28.8-64 64v181.376c0 35.264 28.8 64 64 64h280.832c35.2 0 64-28.8 64-64v-181.376zM960 160c0-35.2-28.8-64-64-64h-280.896c-35.136 0-64 28.8-64 64v181.376c0 35.264 28.864 64 64 64h280.896c35.2 0 64-28.8 64-64v-181.376z" />
<glyph unicode="&#xe60f;" d="M512-23.488c-238.208 0-432 193.728-432 432s193.792 431.936 432 431.936c44.096 0 80-35.84 80-80s-35.904-80-80-80c-149.952 0-272-122.048-272-272s122.048-272 272-272 272 121.984 272 272c0 44.16 35.904 80 80 80s80-35.84 80-80c0-238.208-193.728-431.936-432-431.936zM413.184 911.168c0 35.2 23.488 47.36 52.224 27.008l236.096-167.104c28.736-20.352 28.736-53.632 0-73.984l-236.096-167.168c-28.736-20.352-52.224-8.192-52.224 27.008v354.24z" />
<glyph unicode="&#xe610;" d="M832 832h-640c-70.4 0-128-58.176-128-128.576v-320c0-70.4 57.6-127.424 128-127.424h64v-170.496l209.664 170.496h366.336c70.4 0 128 57.024 128 127.36v320c0 70.464-57.6 128.64-128 128.64z" />
<glyph unicode="&#xe611;" d="M417.536 211.328c-194.944 0-353.536 158.528-353.536 353.6 0 195.008 158.592 353.536 353.536 353.536s353.536-158.592 353.536-353.536-158.592-353.6-353.536-353.6zM417.536 790.464c-124.352 0-225.536-101.184-225.536-225.536 0-124.416 101.184-225.6 225.536-225.6s225.536 101.184 225.536 225.6c0.064 124.352-101.12 225.536-225.536 225.536zM896 7.872c-20.48 0-41.024 7.808-56.576 23.424l-240.32 240.256c-31.232 31.168-31.232 81.792 0 113.152 31.104 31.232 81.856 31.232 113.152 0l240.32-240.256c31.232-31.168 31.232-81.792 0-113.152-15.552-15.616-36.096-23.424-56.576-23.424zM756.336 114.429l-189.941 189.834 113.104 113.168 189.941-189.834-113.104-113.168z" />
<glyph unicode="&#xe612;" d="M558.848 30.848c-20.416 0-40.96 7.872-56.512 23.488-31.232 31.168-31.232 81.792 0 113.152l280.512 280.448-280.448 280.576c-31.232 31.232-31.232 81.92 0 113.152s81.856 31.232 113.152 0l393.6-393.664-393.536-393.472c-15.744-15.808-36.224-23.68-56.768-23.68zM896 368h-768c-44.16 0-80 35.904-80 80 0 44.16 35.84 80 80 80h768c44.096 0 80-35.84 80-80 0-44.096-35.904-80-80-80z" />
<glyph unicode="&#xe613;" d="M490.624 847.488c11.776 36.16 30.976 36.16 42.752 0l71.552-220.224c11.776-36.16 52.544-65.792 90.56-65.792h231.616c38.080 0 43.968-18.304 13.248-40.64l-187.328-136.192c-30.72-22.4-46.4-70.272-34.624-106.496l71.552-220.096c11.84-36.224-3.84-47.552-34.624-25.28l-187.392 136.256c-30.784 22.336-81.152 22.336-111.936 0l-187.392-136.256c-30.72-22.4-46.336-11.072-34.624 25.28l71.616 220.096c11.776 36.16-3.84 84.032-34.624 106.496l-187.264 136.192c-30.72 22.4-24.832 40.64 13.248 40.64h231.616c38.016 0 78.784 29.632 90.56 65.792l71.488 220.224z" />
<glyph unicode="&#xe614;" d="M70.976 699.136c-1.408 1.408-1.408 8.704 0 10.112 0-3.328 0-6.656 0-10.112zM498.944 646.656c0.384 3.008-0.896 12.032 0.896 11.008 0-1.984 0-3.968 0-6.016 0-1.6 0-3.392 0-4.992-0.32 0-0.576 0-0.896 0zM498.944 646.656c0.32 0 0.576 0 0.896 0 0-3.136 0-6.272 0-9.344-0.32 0-0.576 0-0.896 0 0 3.136 0 6.272 0 9.344zM894.784 599.36c0.576 13.248-1.216 28.672 0.832 40.576 0-2.24 0-4.48 0-6.72 0-9.024 0-17.984 0-27.008 0-2.368 0-4.608 0-6.72-0.256-0.128-0.576-0.128-0.832-0.128zM895.616 633.216c0.384 0 0.64 0 0.896 0 0-9.088 0-18.112 0-27.136-0.256 0-0.512 0-0.896 0 0 8.96 0 18.048 0 27.136zM894.784 599.36c0.256 0 0.576 0 0.832 0-0.512-2.624 1.152-7.296-0.832-8.576 0 1.216 0 2.24 0 3.456 0 1.728 0 3.392 0 5.12zM494.72 596.8c-2.368-0.256-12.288 0.128-5.952 0.832 1.984 0 3.968 0 5.952 0 0-0.32 0-0.576 0-0.832zM68.416 551.936c0.256 0 0.576 0 0.832 0 0-2.816 0-5.632 0-8.512-1.92 1.216-0.192 5.952-0.832 8.512zM164.928 360.832c7.36 0 14.656 0 22.016 0-5.44-1.408-16.64-1.408-22.016 0zM54.912 142.592c-2.432-0.128-13.312 0-6.784 0.96 2.24 0 4.544 0 6.784 0 0-0.512 0-0.768 0-0.96zM54.912 142.592c0 0.256 0 0.512 0 0.96 2.816 0 5.632 0 8.448 0 0-0.448 0-0.704 0-0.96-1.408 0-2.816 0-4.224 0s-2.816 0-4.224 0zM63.424 142.592c0 0.256 0 0.512 0 0.96 0.256 0 0.576 0 0.832 0 3.392-0.704 9.024 1.152 10.944-0.96-3.968 0-7.872 0-11.776 0zM79.488 142.592c1.984 1.984 7.552 0.256 11.008 0.96 0.256 0 0.576 0 0.832 0 0-0.448 0-0.704 0-0.96-3.968 0-7.936 0-11.84 0zM91.264 142.592c0 0.256 0 0.512 0 0.96 2.816 0 5.632 0 8.448 0 0-0.448 0-0.704 0-0.96-1.152 0-2.24 0-3.392 0-1.664 0-3.264 0-5.056 0zM99.776 142.592c0 0.256 0 0.512 0 0.96 2.56 0 5.12 0 7.616 0 6.464-0.96-5.12-1.088-7.616-0.96zM59.136 142.592c1.408 0 2.816 0 4.224 0 3.968 0 7.872 0 11.84 0 1.408 0 2.816 0 4.224 0 3.968 0 7.872 0 11.84 0 1.728 0 3.392 0 5.12 0-10.496-1.408-26.816-1.408-37.248 0zM553.152 777.792c2.496 3.2 5.312 6.016 8.512 8.448-2.624-3.2-5.44-5.952-8.512-8.448zM277.376 658.56c4.096-1.472 8.32-2.944 11.008-5.952-0.576 0-1.152 0-1.664 0-2.304 1.152-4.48 2.304-6.72 3.392-0.64 0.832-1.536 1.344-2.56 1.664-0.064 0.32-0.064 0.576-0.064 0.896zM147.072 750.656c5.312-5.12 11.072-9.728 16.064-15.168-2.048 0.256-1.6 2.944-4.224 2.56-2.496 3.136-5.312 5.952-8.384 8.384-0.64 1.984-2.752 2.304-3.456 4.224zM147.072 750.656c-2.496 1.216-3.392 3.968-5.824 5.184-3.072 3.712-6.528 7.104-10.24 10.112-1.152 2.496-3.904 3.392-5.12 6.016 7.488-6.784 14.528-13.76 21.184-21.312zM121.728 569.664c-0.512 1.728-1.728 2.752-2.56 4.224 1.792-1.088 3.2-2.496 4.224-4.224 3.328-3.904 7.040-7.616 11.072-11.008 1.984-0.512 2.24-2.752 4.224-3.392 0-0.256 0-0.576 0-0.832-1.728 1.152-3.328 2.432-5.12 3.456-3.52 4.288-7.552 8.32-11.84 11.776zM121.728 569.664c4.288-3.52 8.256-7.488 11.84-11.84-4.224 3.584-8.256 7.552-11.84 11.84zM120.064 427.712c-0.768 1.408-2.048 2.496-2.56 4.16 1.792-1.088 3.2-2.496 4.224-4.16 3.392-4.032 6.976-7.744 11.072-11.072 1.792-1.024 3.2-2.432 4.224-4.16-2.304 0.512-3.264 2.432-5.056 3.328-3.712 4.224-7.616 8.192-11.904 11.904zM120.064 427.712c4.288-3.648 8.256-7.616 11.84-11.904-4.288 3.648-8.192 7.488-11.84 11.904zM180.992 289.792c-1.088 1.6-2.368 3.264-3.392 4.992 1.792-1.088 3.2-2.496 4.224-4.224 3.008-3.648 6.4-7.104 10.176-10.112 2.048-1.344 3.776-3.008 5.12-5.12-2.176 1.344-3.904 2.88-5.952 4.224-3.072 3.776-6.464 7.104-10.176 10.24zM180.992 289.792c3.776-3.136 7.104-6.592 10.112-10.24-3.776 3.136-7.104 6.528-10.112 10.24zM244.352 244.928c-5.376 0.512-9.216 2.624-11.84 5.888 4.48-1.472 8.448-3.52 11.84-5.888zM246.848 180.544c4.736 3.776 10.368 6.656 16.96 8.512-4.864-3.52-10.24-6.592-16.96-8.512zM678.336 839.552c3.392 0 6.656 0 10.048 0-3.968-2.432-11.392-1.472-17.664-1.664 0.64 2.432 6.912-0.768 7.616 1.664zM707.008 839.552c3.136 0 6.272 0 9.344 0-0.128-2.432 5.184 0.704 5.056-1.664-5.248 0.192-11.392-0.704-14.4 1.664zM830.592 787.968c4.16-2.88 6.784-7.296 11.008-10.24 0.96 0 1.664 0 2.56 0-4.8-3.136-9.536 7.232-13.568 10.24zM844.864 777.792c46.656 9.216 86.016 25.6 121.024 46.528-5.376-24-20.16-45.76-33.856-64.256-4.48-3.904-8.896-8.064-12.608-12.608 0.256-1.408-0.768-1.6-1.728-1.728-3.84-3.008-7.104-6.464-10.112-10.112-6.72-6.272-14.848-11.008-22.016-16.896-0.64 0-1.216 0-1.664 0-0.832-0.96-3.2-0.256-2.56-2.624-0.128-1.344 5.184-1.344 5.056 0 0.768-0.128 0.832 0.384 0.96 0.896 40.128 4.352 73.28 15.808 104.896 28.736-7.488-14.016-18.112-24.768-27.136-37.248-4.608-4.032-8.384-9.024-12.608-13.504-6.272-5.504-12.16-11.392-17.792-17.664-0.256 0-0.576 0-0.832 0-4.288-3.712-8.256-7.616-11.904-11.968-7.232-5.376-14.208-11.008-21.12-16.896-3.328-1.408-6.144-3.008-5.248-8.448-1.984-11.84-0.256-27.328-0.832-40.576 0-1.728 0-3.392 0-5.12-1.408-8.768-1.664-18.56-1.664-28.8-8.384-74.24-28.032-137.216-54.976-192.768-3.52-6.208-7.232-12.032-9.344-19.584-7.616-14.144-15.872-27.52-23.616-41.408-6.208-6.592-11.392-14.080-15.232-22.656-12.16-16-24.512-32-37.248-47.36-1.472-0.896-2.624-1.856-3.392-3.392-3.264-2.496-6.016-5.376-8.512-8.576 0-0.256 0-0.512 0-0.896-9.6-8.96-18.88-18.24-27.904-27.968-0.384 0-0.64 0-0.896 0-3.136-2.496-6.016-5.248-8.512-8.384-1.472-0.896-2.624-1.984-3.392-3.52-9.344-7.488-18.816-14.976-27.904-22.72-5.248-2.112-9.472-5.248-12.672-9.344-2.112-1.344-4.672-1.984-5.952-4.16-7.104-2.752-12.864-6.72-17.728-11.84-10.368-5.824-20.352-11.968-30.528-17.728-4.608-1.024-8.512-2.752-10.88-5.888-3.904-1.344-7.232-3.008-10.24-5.12-4.928-0.32-8.192-2.432-10.944-5.056-54.592-24.384-115.328-42.496-188.608-48.256-31.424-2.048-65.792-1.344-95.552-0.896-45.824 4.032-87.168 12.672-125.184 24.64-4.672 3.264-10.688 5.12-17.792 5.888-18.368 6.656-35.84 14.464-53.312 22.080-6.272 3.904-13.056 7.168-20.288 10.048-13.056 8.192-30.656 16.32-40.64 24.576 4.352-1.216 10.496-0.832 16.064-0.832 0-0.384 0-0.64 0-0.896-6.528-0.96 4.352-1.088 6.784-0.96 1.408 0 2.816 0 4.224 0 10.432-1.344 26.752-1.344 37.248 0 1.152 0 2.24 0 3.392 0 2.496-0.128 14.144 0 7.616 0.96 0 0.256 0 0.512 0 0.896 55.808 2.752 100.096 17.216 139.52 36.224 6.72 1.792 12.032 4.928 16.96 8.512 19.776 9.344 37.12 20.992 53.312 33.792 0.704 0.576 1.344 0.96 2.56 0.96 1.536 0.768 2.624 1.792 3.392 3.392-2.56 1.6-8 0.448-11.904 0.96-26.752 1.024-46.656 9.024-66.752 16.896-3.52 2.368-7.424 4.352-11.84 5.888-12.608 7.488-24.32 15.744-35.52 24.512-1.344 2.112-3.008 3.776-5.12 5.12-3.008 3.776-6.4 7.104-10.176 10.112-1.024 1.728-2.432 3.264-4.224 4.224-3.072 4.48-6.592 8.64-10.112 12.736-2.368 5.248-5.056 10.048-9.344 13.504-0.64 2.496-1.984 4.032-3.328 5.824-2.24 7.168-5.312 13.376-9.344 18.624-1.792 6.4-5.248 11.136-5.952 18.624 4.928-1.28 10.304-1.984 16.832-1.728 0.128-1.856 3.648-0.256 5.12-0.768 0.256-1.28 2.176-0.704 3.456-0.832 5.376-1.344 16.64-1.344 22.016 0 1.216-0.128 2.368-0.128 2.56 0.896 2.752 0.448 7.808-1.216 9.344 0.704 10.368 0.128 17.856 3.136 27.008 4.352-12.416 5.632-27.584 8.384-39.744 14.272-4.16 3.52-9.216 6.016-15.232 7.616-12.032 7.232-23.232 15.168-33.856 23.744-1.024 1.792-2.432 3.136-4.224 4.16-3.328 3.968-7.040 7.744-11.072 11.008-1.088 1.728-2.432 3.072-4.224 4.224-8.448 10.624-16.384 21.824-23.68 33.728-1.6 6.080-4.096 11.136-7.552 15.296-7.616 17.792-13.632 37.248-16.064 60.032 0 7.040 0 14.080 0 21.12 5.888-1.152 8.448-5.696 15.232-5.952 17.664-8.512 38.4-14.144 62.592-16.128 0.832 0 1.664 0 2.56 0 0.576-1.856 4.736-0.256 6.72-0.832 0 1.472-0.64 2.24-1.728 2.56-1.472 0.768-2.496 2.048-4.224 2.56-4.032 3.584-8.128 7.040-12.672 10.176 0 0.256 0 0.576 0 0.896-2.048 0.576-2.304 2.816-4.224 3.392-3.392 3.968-6.976 7.68-11.072 11.008-0.96 1.792-2.368 3.136-4.224 4.288-8.448 10.624-16.448 21.76-23.616 33.792-1.28 5.824-4.16 9.92-6.784 14.464-8.32 17.28-14.208 36.992-16.896 59.968 0 1.152 0 2.304 0 3.392-0.512 10.688 1.152 23.68-0.832 33.024 0 1.408 0 2.88 0 4.224 3.968 27.648 11.456 51.776 22.016 72.768 1.92 0.896 3.072 2.624 3.392 5.12 3.648 1.344 5.696-5.376 9.344-6.72 1.536-2.112 2.56-4.8 5.056-6.016 0.256-1.92 2.944-1.472 2.56-4.16 2.496-3.264 5.312-6.144 8.384-8.512 0-0.256 0-0.64 0-0.896 8.96-9.6 18.24-18.88 27.904-27.968 0.256 0 0.576 0 0.896 0 2.432-3.136 5.248-5.952 8.448-8.384 2.688 0.384 2.24-2.304 4.224-2.56 15.36-14.272 31.872-27.392 49.856-38.848 4.736-5.184 10.368-9.408 17.728-11.84 11.52-8.256 24-15.488 37.248-22.016 2.688-3.648 7.488-4.992 11.968-6.784 2.24-1.088 4.48-2.24 6.72-3.392 3.52-2.112 6.464-4.8 11.84-5.056 54.72-25.088 115.008-44.544 190.336-49.088 0-0.256 0-0.512 0-0.832-6.4-0.704 3.584-1.088 5.952-0.832 1.152 0 2.304 0 3.392 0 0.64-1.92 4.736-0.32 6.784-0.896 0.576 0.768 1.344 2.368 0 2.624 0.128 0.704-0.32 0.768-0.832 0.896-1.28 7.488-1.984 15.488-3.392 22.784 0 1.216 0 2.24 0 3.392-0.576 8.576 1.088 19.2-0.832 26.24 0 1.984 0 3.968 0 6.016 5.12 46.528 22.272 80.896 44.8 109.952 9.344 8.576 18.368 17.6 27.072 26.944 26.624 20.8 57.92 36.8 98.944 43.2 6.4 0.128 13.696-0.832 17.728 1.6 6.208 0 12.352 0 18.624 0 2.88-2.368 9.152-1.472 14.4-1.6 44.672-5.504 76.928-23.488 104.896-45.76 1.152-1.728 2.496-3.2 4.224-4.224 3.968-3.008 8.896-13.248 13.504-10.112 0.32-0.192 0.576-0.192 0.832-0.192zM919.36 747.328c3.904 4.608 8.128 8.896 12.672 12.672-1.088-2.624-2.752-4.416-5.056-5.888-3.008-1.792-4.608-4.992-7.616-6.784zM907.52 735.488c3.072 3.712 6.464 7.040 10.112 10.176-1.664-3.136-4.992-4.544-6.656-7.616-1.856-0.256-1.728-2.304-3.456-2.56zM886.4 716.032c0.128-1.408-5.184-1.408-5.056 0-0.704 2.24 1.664 1.536 2.56 2.496-0.384-0.768-0.768-1.472-1.728-1.664-0.192-1.856 2.944-0.32 4.224-0.832zM934.592 677.184c5.568 6.272 11.584 12.096 17.792 17.728-5.632-6.272-11.52-12.224-17.792-17.728zM921.856 665.344c3.648 4.224 7.552 8.256 11.904 11.904-1.216-2.56-3.968-3.52-5.12-5.952-1.536-2.88-4.224-4.288-6.784-5.952zM838.144 372.672c-1.6-8-5.248-13.888-9.28-19.52 2.048 7.552 5.76 13.44 9.28 19.52zM789.888 288.96c3.968 8.768 9.152 16.256 15.232 22.72-5.248-7.36-10.368-14.976-15.232-22.72zM740.864 229.696c2.496 3.136 5.376 6.016 8.512 8.512-2.496-3.264-5.248-6.016-8.512-8.512zM713.024 200.96c9.024 9.6 18.24 19.008 27.904 27.968-1.984-3.328-5.504-5.12-7.616-8.448-4.224-3.648-8.256-7.424-11.84-11.904-3.328-1.984-5.184-5.632-8.448-7.616zM703.744 192.576c2.368 3.136 5.248 5.888 8.384 8.384-2.496-3.264-5.248-6.016-8.384-8.384zM659.712 156.928c3.2 4.096 7.424 7.232 12.672 9.344-3.904-3.456-7.872-6.848-12.672-9.344zM636.032 140.928c4.928 4.992 10.688 9.024 17.728 11.776-6.016-3.776-12.096-7.616-17.728-11.776zM594.624 117.312c2.368 3.136 6.336 4.864 10.88 5.888-3.968-1.792-6.144-5.12-10.88-5.888zM573.376 107.072c2.752 2.624 6.016 4.736 11.008 5.12-3.264-2.112-6.272-4.48-11.008-5.12zM289.28 57.92c29.696-0.384 64.128-1.344 95.552 0.896 0-0.256 0-0.512 0-0.896-9.6-0.256-19.328-0.256-27.904-1.6-15.232 0-30.464 0-45.696 0-3.392 1.984-10.432 0.256-15.232 0.768-0.576 1.984-4.8 0.448-6.72 0.832zM146.304 88.448c7.104-0.768 13.12-2.624 17.792-5.888-6.528 1.408-12.416 3.392-17.792 5.888zM319.68 223.808c5.184 4.48-4.16 3.264-8.448 3.392 0 0.256 0 0.512 0 0.896 3.904-0.512 9.344 0.832 11.904-0.896-0.832-1.536-1.92-2.624-3.456-3.392zM192 280.448c-3.712 3.008-7.104 6.528-10.176 10.112 3.648-3.008 7.168-6.4 10.176-10.112zM167.488 307.584c-3.456 4.096-6.080 9.28-9.408 13.504 4.352-3.392 7.040-8.256 9.408-13.504zM154.752 326.912c-3.392 6.016-7.488 11.136-9.344 18.624 4.032-5.248 7.104-11.456 9.344-18.624zM170.752 388.672c6.016-1.6 11.072-4.096 15.232-7.616-5.952 1.728-11.008 4.288-15.232 7.616zM132.8 416.576c-4.032 3.392-7.68 7.040-11.008 11.008 3.968-3.264 7.616-6.976 11.008-11.008zM86.272 480.96c3.392-4.224 5.888-9.28 7.552-15.296-3.392 4.224-5.888 9.28-7.552 15.296zM69.312 551.936c0 3.648 0 7.296 0 10.944 0.832 0 1.664 0 2.56 0 4.992-1.792 9.472-4.032 13.504-6.784-6.72 0.32-9.344 4.736-15.232 5.952 0-7.040 0-14.144 0-21.12-0.96 0.128-0.896 1.408-0.832 2.496 0 2.944 0 5.76 0 8.512zM134.464 558.656c-3.968 3.392-7.744 7.040-11.072 11.008 4.096-3.2 7.68-6.976 11.072-11.008zM88.768 622.208c2.688-4.352 5.504-8.64 6.72-14.464-2.944 4.224-6.080 8.064-6.72 14.464zM105.664 793.792c-3.648 1.472-5.696 8.128-9.344 6.784-0.256-2.496-1.472-4.16-3.328-5.12 0.64 3.264 2.368 5.504 4.224 7.616 4.032-1.856 5.888-5.824 8.448-9.28zM113.344 783.744c3.2-2.496 6.016-5.312 8.448-8.448-3.136 2.368-5.952 5.248-8.448 8.448zM121.728 774.464c3.584-2.368 5.696-6.208 9.344-8.512 3.008-3.712 6.4-7.104 10.176-10.112 2.304-3.648 6.144-5.76 8.448-9.344-9.664 8.96-19.008 18.24-27.968 27.968zM150.592 746.496c3.136-2.432 5.952-5.312 8.448-8.384-3.2 2.304-6.016 5.184-8.448 8.384zM230.784 684.736c-7.36 2.432-13.056 6.72-17.664 11.84 5.76-4.16 11.008-8.64 17.664-11.84zM280 655.936c-4.48 1.728-9.344 3.136-11.968 6.72 3.776-0.768 6.144-2.816 9.344-4.16 0-0.256 0-0.576 0-0.832 1.024-0.32 1.856-0.832 2.624-1.728zM286.656 652.608c0.576 0 1.088 0 1.664 0 3.84-1.216 7.232-2.944 10.112-5.056-5.248 0.256-8.192 2.944-11.776 5.056zM504.96 598.464c1.344-0.128 0.576-1.792 0-2.496-2.112 0.448-6.208-1.152-6.784 0.768 2.048 0.768 7.232-1.6 6.784 1.728zM571.776 794.688c-8.64-9.344-17.664-18.368-27.136-27.008 1.728 2.496 3.2 5.248 5.952 6.72 5.184 4.352 9.92 9.28 14.464 14.4 1.408 2.752 4.16 4.288 6.72 5.888zM926.912 754.112c-4.544-6.208-9.536-11.84-16.064-16.064 1.728 3.008 4.992 4.48 6.72 7.616 1.024 0 1.984 0.256 1.728 1.6 3.072 1.856 4.672 5.056 7.616 6.848zM841.472 777.792c-2.88 4.096-7.232 6.784-10.112 11.008 4.928-3.264 7.232-9.152 13.504-11.008-0.32 0-0.576 0-0.896 0-0.704 0-1.6 0-2.496 0zM826.368 792.128c1.728-1.088 3.264-2.368 4.992-3.392 2.88-4.16 7.296-6.848 10.176-11.072-4.16 2.944-6.784 7.36-11.008 10.24-1.792 1.088-3.136 2.56-4.16 4.224zM561.536 786.24c1.664 0.256 1.536 2.304 3.456 2.56-4.48-5.12-9.344-9.92-14.464-14.4 0.256 1.664 2.304 1.6 2.56 3.392 3.136 2.496 5.952 5.248 8.448 8.448zM113.344 783.744c0.384 2.688-2.304 2.24-2.56 4.16 5.504-4.992 10.112-10.752 15.232-16-1.984 0.512-2.304 2.752-4.288 3.392-2.496 3.136-5.312 5.952-8.384 8.448zM121.728 774.464c0 0.256 0 0.512 0 0.832 1.92-0.576 2.24-2.816 4.224-3.456 1.216-2.496 3.968-3.456 5.12-5.952-3.584 2.368-5.76 6.144-9.344 8.576zM141.248 755.84c-3.84 2.944-7.168 6.4-10.24 10.112 3.712-3.008 7.168-6.4 10.24-10.112zM149.632 746.496c-2.304 3.712-6.080 5.696-8.384 9.344 2.496-1.152 3.392-3.904 5.888-4.992 0.576-2.048 2.752-2.432 3.392-4.352-0.256 0-0.64 0-0.896 0zM713.792 200.064c2.048 3.392 5.568 5.12 7.616 8.512 4.288 3.648 8.256 7.488 11.84 11.904 3.392 1.984 5.12 5.696 8.512 7.616-9.024-9.792-18.24-19.008-27.968-28.032zM752.768 241.536c-2.752-5.376-8.256-8.256-11.008-13.504-3.264-1.984-5.12-5.632-8.384-7.616 1.984 3.264 5.504 5.12 7.616 8.384 0 0.384 0 0.64 0 0.896 3.136 2.496 6.016 5.248 8.384 8.512 0.768 1.472 1.792 2.496 3.392 3.328zM900.736 648.384c-3.968-2.56-4.992-8-4.224-15.168-0.256 0-0.512 0-0.768 0 0 2.24 0 4.416 0 6.656-1.024 5.44 1.792 7.168 4.992 8.512zM935.36 676.288c5.888 6.592 12.032 12.736 18.624 18.624-5.824-6.592-11.968-12.8-18.624-18.624zM964.992 708.416c-2.752-5.376-8.128-8.128-11.008-13.504-6.656-5.888-12.736-12.032-18.624-18.624-2.24-1.6-4.352-3.52-6.72-5.056 1.216 2.432 3.968 3.392 5.12 5.952 0.256 0 0.576 0 0.832 0 6.336 5.504 12.16 11.456 17.792 17.728 4.16 4.544 8 9.344 12.608 13.504zM883.904 718.592c0.512 0 1.152 0 1.6 0-1.216-1.408-0.768-1.856 1.664-1.664-0.064-0.576-0.128-1.088-0.896-0.832-1.216 0.384-4.352-1.088-4.16 0.832 0.896 0.128 1.28 0.896 1.792 1.664zM68.416 551.936c0.384 4.096-0.896 9.856 0.832 12.672 1.024-0.448 1.92-0.96 2.56-1.728-0.832 0-1.664 0-2.56 0 0-3.648 0-7.296 0-10.944-0.192 0-0.448 0-0.832 0zM151.36 544.32c1.728-0.512 2.752-1.728 4.224-2.56 2.688-2.688-2.816-1.408-5.056-1.664-0.896 0-1.728 0-2.56 0 0.064 1.792 3.584 0.384 5.056 0.896 2.304 0.704-1.92 1.792-1.664 3.328zM150.592 540.032c2.176 0.256 7.68-0.96 5.056 1.728 1.088-0.32 1.728-1.088 1.728-2.56-2.176 0.64-6.272-1.024-6.784 0.832zM311.168 227.2c4.288-0.128 13.632 1.152 8.448-3.392-1.152 0-1.792-0.384-2.56-0.896 7.808 5.12-6.4 2.304-5.888 4.288zM721.408 208.576c3.584 4.352 7.552 8.256 11.84 11.904-3.584-4.416-7.488-8.32-11.84-11.904zM713.024 200.96c3.328 1.984 5.12 5.632 8.448 7.616-2.048-3.392-5.568-5.12-7.616-8.512-5.312-2.88-8.064-8.256-13.504-11.008 0.832 1.472 1.792 2.624 3.456 3.52 3.136 2.368 5.888 5.12 8.384 8.384 0.192 0 0.448 0 0.832 0zM93.056 110.464c-8.192 1.984-14.912 5.376-20.288 10.112 7.232-2.88 13.952-6.272 20.288-10.112zM70.976 709.248c-1.408-1.408-1.408-8.704 0-10.112 0.512-4.288-1.088-10.688 0.832-13.568 0-1.152 0-2.24 0-3.392-3.584 10.816-2.56 31.488-0.832 40.64 0-1.344 0-2.816 0-4.224 0-3.136 0-6.208 0-9.344zM70.976 718.592c1.984-9.344 0.32-22.336 0.832-33.024-1.92 2.816-0.32 9.28-0.832 13.568 0 3.456 0 6.656 0 10.112 0 3.136 0 6.208 0 9.344zM499.904 651.84c1.92-7.040 0.256-17.728 0.832-26.24-2.048 2.24-0.384 8.064-0.832 11.776 0 3.072 0 6.208 0 9.344 0 1.664 0 3.328 0 5.12zM499.904 637.376c0.448-3.712-1.216-9.536 0.832-11.84 0-1.216 0-2.24 0-3.392-2.88 2.816-1.408 9.984-1.792 15.232 0.32 0 0.576 0 0.96 0zM501.44 597.632c1.344 0.064 2.944-0.064 2.56 1.728 0.512-0.064 1.024-0.128 0.832-0.96 0.512-3.328-4.608-0.96-6.784-1.6-1.088 0-2.24 0-3.392 0 0 0.256 0 0.576 0 0.832 2.432 0 4.608 0 6.784 0zM894.016 574.784c0.896 4.736 1.024 10.24 0.832 16 1.92 1.28 0.256 5.952 0.832 8.576 0 2.176 0 4.416 0 6.656 0.384 0 0.64 0 0.896 0-0.448-10.88 0.448-22.976-2.56-31.232zM894.016 574.784c-0.512-2.88 1.088-7.872-0.896-9.344 0 10.24 0.256 19.968 1.664 28.8 0-1.216 0-2.24 0-3.456 0.192-5.696 0.064-11.2-0.768-16zM180.992 361.664c4.224 1.856 12.096 0.256 17.792 0.768-1.472-1.856-6.528-0.256-9.408-0.768-2.752 0-5.568 0-8.384 0zM90.496 143.424c3.968 1.984 11.52 0.256 16.896 0.896 0-0.384 0-0.64 0-0.896-2.56 0-5.056 0-7.616 0-2.816 0-5.632 0-8.448 0-0.32 0-0.64 0-0.832 0zM296 57.088c4.8-0.512 11.84 1.344 15.168-0.768-5.312 0-10.688 0-16.064 0 0.064 0.512 0.128 1.024 0.896 0.768zM488.768 598.464c4.032-0.512 10.176 1.088 12.672-0.832-2.24 0-4.48 0-6.72 0-1.984 0-3.968 0-5.952 0 0 0.32 0 0.576 0 0.832zM156.352 362.432c4.224-0.512 10.688 1.152 13.568-0.768-2.816 0-5.632 0-8.448 0-1.472 0.512-4.928-1.088-5.12 0.768zM48.128 144.32c5.12-0.64 12.416 1.152 16.064-0.896-0.256 0-0.576 0-0.832 0-2.816 0-5.632 0-8.448 0-2.24 0-4.544 0-6.784 0 0 0.256 0 0.512 0 0.896zM356.928 56.32c8.576 1.344 18.304 1.344 27.904 1.6 1.408-2.24-9.6 0.768-10.944-1.6-5.76 0-11.328 0-16.96 0zM161.472 361.664c2.816 0 5.632 0 8.448 0 3.648 0 7.36 0 11.008 0 2.816 0 5.632 0 8.448 0-0.192-1.088-1.344-1.088-2.56-0.896-7.296 0-14.656 0-22.016 0-1.152 0.192-3.072-0.32-3.328 0.896z" />
<glyph unicode="&#xe615;" d="M371.456 33.984l-343.36 343.296c-37.504 37.504-37.504 98.304 0 135.808 37.44 37.504 98.24 37.504 135.744 0l207.552-207.552 488.704 488.704c37.504 37.504 98.24 37.504 135.744 0s37.504-98.304 0-135.744l-624.384-624.512z" />
<glyph unicode="&#xe616;" d="M481.664 865.088c20.416 0 41.024-7.872 56.512-23.488 31.232-31.104 31.232-81.728 0-113.152l-280.512-280.448 280.448-280.512c31.232-31.232 31.232-81.92 0-113.216-31.168-31.232-81.792-31.232-113.152 0l-393.536 393.728 393.536 393.472c15.744 15.744 36.224 23.616 56.704 23.616zM144.576 528h768c44.096 0 80-35.904 80-80 0-44.16-35.904-80-80-80h-768c-44.096 0-80 35.84-80 80 0 44.096 35.84 80 80 80z" />
<glyph unicode="&#xe617;" d="M401.792 48.512c-52.096 0-96.128 45.568-96.128 99.52v74.688h-47.936c-91.392 0-165.696 74.368-165.696 165.76v295.552c0 91.392 74.368 165.696 165.696 165.696h508.608c91.392 0 165.696-74.368 165.696-165.696v-295.552c0-91.392-74.304-165.76-165.696-165.76h-132.992c-21.056 0-29.44-8.384-30.336-9.344l-5.184-5.952-132.224-132.16c-17.216-17.28-39.936-26.752-63.808-26.752zM257.728 721.728c-20.8 0-37.696-16.896-37.696-37.696v-295.552c0-20.416 17.28-37.76 37.696-37.76h67.648c40.768 0 65.92-17.472 79.808-32.256 22.784-24.064 29.568-56.064 28.352-78.080v-16.256l70.784 70.784c21.696 27.008 66.56 55.808 129.024 55.808h132.928c20.416 0 37.696 17.344 37.696 37.76v295.552c0 20.416-17.28 37.696-37.696 37.696h-508.544z" />
<glyph unicode="&#xe618;" d="M243.072 862.080c20.224 0 40.448 0 60.736 0 111.104-18.688 183.040-76.736 207.488-182.208 24.448 105.472 96.32 163.456 207.488 182.208 20.224 0 40.512 0 60.672 0 140.096-24.832 254.656-160.96 197.376-323.968-16.704-47.616-64.768-94.272-106.24-136.64-95.424-97.536-209.728-222.656-306.688-316.736-18.752-18.304-51.904-50.816-51.904-50.816s-32.192 33.728-48.768 50.88c-58.88 60.992-129.664 124.608-194.816 195.264-67.584 73.28-192 169.92-222.656 263.168-53.056 161.088 55.040 293.44 197.312 318.848z" />
<glyph unicode="&#xe619;" d="M738.624 684.096h-647.040c-31.296 0-56.896-25.6-56.896-56.896v0-410.048c0-31.296 25.6-56.896 56.896-56.896h117.312v-116.736c0-31.296 19.328-40.128 42.88-19.584l156.928 136.32h329.92c31.296 0 56.96 25.536 56.96 56.896v410.048c0 31.296-25.664 56.896-56.96 56.896zM937.728 883.2h-647.040c-31.232 0-56.896-25.6-56.896-56.896v-56.896h590.336c31.232 0 56.832-25.536 56.832-56.896v-353.216h56.896c31.232 0 56.896 25.664 56.896 56.896v410.112c-0.128 31.296-25.728 56.896-57.024 56.896z" />
<glyph unicode="&#xe61a;" d="M512 928c-265.152 0-480-214.912-480-480 0-265.024 214.848-480 480-480 265.088 0 480 214.912 480 480s-214.912 480-480 480zM597.696 731.584l-4.864-120.128-19.456-225.728h-127.104l-19.52 225.728-4.8 120.128h175.744zM512 156.288c-47.040 0-81.152 37.376-81.152 84.416s34.112 84.416 81.152 84.416c47.040 0 81.28-37.376 81.28-84.352 0-47.104-34.24-84.48-81.28-84.48z" />
</font>
</defs>
</svg>
