<?xml version="1.0" encoding="utf-8"?>
<!-- Generator: Adobe Illustrator 18.0.0, SVG Export Plug-In . SVG Version: 6.00 Build 0)  -->
<!DOCTYPE svg PUBLIC "-//W3C//DTD SVG 1.1//EN" "http://www.w3.org/Graphics/SVG/1.1/DTD/svg11.dtd">
<svg version="1.1" id="Livello_1" xmlns="http://www.w3.org/2000/svg" xmlns:xlink="http://www.w3.org/1999/xlink" x="0px" y="0px"
	 viewBox="0 0 1162.2 283.5" enable-background="new 0 0 1162.2 283.5" xml:space="preserve">
<g>
	<path fill="#FEEE59" d="M140.7,192l0-71.4c0-4.7-0.1-9.3-0.8-13.9c-1.8-11.5-7.6-20.3-19-24.3c-9.8-3.5-19.5-2.7-29,1.1
		c-10.3,4.1-18.2,11.3-25.1,19.7l-2.6,2.7V80c-17.7,2-35.5,4-53.2,6v2.3c0.6,0.1,1.6,0.2,2.2,0.3c9.5,1.6,11.6,1.5,11.6,12.6v0.3
		c0,29.1,0,58.2,0,87.3c0,1.5,0,3-0.1,4.4c-0.2,3.3-1.8,5.5-5.3,6.1c-2.5,0.4-8.4,1.2-8.4,1.2v2.6l66,0v-2.7l-3.8-0.4
		c-6.4-0.6-8.5-2.6-8.5-8.9c0-27,0-47.8,0-74.8c0-1,0.2-2.2,0.8-2.8c4.5-4.5,10.3-11.5,16.4-14.3c5.8-2.7,15.9-1.5,17.8,8
		c0.6,3,0.9,6.1,0.9,9.1c0.1,24,0.1,48,0,72c0,8.2,0.8,10.9-9.4,12.2c-0.1,0-0.1,0.1-0.2,0.1v2.5h62.8v-2.6c0,0-3.8-0.4-5.6-0.6
		C142.9,199.2,140.7,197,140.7,192z"/>
	<path fill="#FEEE59" d="M692.3,80.2c-36.9,0.2-61.9,26.4-62,62.2c-0.1,36.9,25.3,63,62.3,62.9c36.7-0.1,61.6-26.3,61.7-62.9
		C754.4,106.4,727.9,80.1,692.3,80.2z M710.8,169.5c-0.8,9.2-2,16.4-7.2,24.4c-6.2,9.6-17.1,8.9-23.3-0.7c-4-6.2-5.2-10.8-5.9-17.7
		c-1.1-10.7-2.1-23.5-2.1-33.7c0-10.3,1.3-23.8,2.9-36.4c0.9-6.8,3.8-12.6,7.9-17c5.8-6.2,15.2-4.9,19.9,2.1
		c4.3,6.4,5.8,11.8,6.9,19.2C712.8,129.6,712.5,149.6,710.8,169.5z"/>
	<path fill="#FEEE59" d="M611.7,191.6c0-1.6,0-3.2,0-4.8V27l-4.1,0.4c-12.4,1.4-24.8,2.8-37.1,4.2C566.7,32,559,33,559,33v2.6
		l4.1,0.5c6.5,0.7,8.5,2.7,8.8,9.2c0,0.9,0,1.9,0,2.8c0,47,0,94,0,140.9c0,1.6,0,3.2-0.2,4.8c-0.3,3-2,4.8-4.9,5.4
		c-2.6,0.5-5.2,0.8-7.8,1.4c0,0,0,0,0,0v2.5c0,0,64.9,0,64.9,0v-2.6c-1.5-0.3-3-0.4-4.6-0.6C613.9,199.2,611.9,197,611.7,191.6z"/>
	<path fill="#FEEE59" d="M1016,187.4c-0.1-1.7-0.1-3.4-0.1-5.1c0-32.6,0-65.2,0-97.7c0-4.8-0.1-4.9-5-4.3c-9.2,1-18.5,1.9-27.7,2.9
		c-7.6,0.8-15.2,1.6-22.8,2.5v3c2.9,0.4,5.9,0.6,8.9,1.2c5,1,6.3,2.4,6.4,7.4c0.2,26.2,0.2,48,0.2,74.2c0,1.1-0.8,2.4-1.6,3.2
		c-6.5,6.5-13.8,13.2-22.6,12.6c-5.2-0.4-9.3-3.3-10.5-8.4c-0.7-3-1-6.3-1-9.4c-0.1-28.5,0-56.9,0-85.4c0-4.1-0.2-4.3-4.3-3.8
		c-3.2,0.3-6.3,0.7-9.4,1.1c-12.5,1.4-25,2.8-37.5,4.3v2.9c9.7,1,11.2,2.6,11.2,12.4c0,1.3-0.3,49.1,0,71.7c0.1,8.1,2.3,16,7.8,22.3
		c7.4,8.6,17.3,11,28,10.2c13.6-1,24.2-7.8,33.4-17.4c2.4-2.5,4.7-5.2,7.1-7.9v25.7c16.8-1.9,35.2-3.8,51.9-5.7v-2.9
		c0,0-2.2-0.2-3.4-0.3C1018.2,196,1016.2,193.8,1016,187.4z"/>
	<path fill="#FEEE59" d="M846.6,179.2c-11.2-1-22.4-1-33.6-1.7c-6.2-0.4-12.5-0.7-18.5-1.9c-4.6-0.8-5.8-4.5-4.2-9.5
		c1.8-5.4,3.3-6.3,8-4.8c0.4,0.1,0.8,0.2,1.2,0.3c8.2,1.8,16.5,2.3,24.9,1.4c13.3-1.4,24.9-6.2,33.7-16.5
		c10.7-12.5,12-31.6,2.9-45.4c-2.9-4.3-6-7.2-9.5-11.2c9.6,2.6,18.6,4.5,28.5,7.3v-15c-9.9,1.2-19.5,2.4-29.1,3.5
		c-2.5,0.3-5.5,0.6-7.7-0.3c-14-5.9-28.5-6.9-43.1-3.3c-16.2,4-28.8,12.6-33.6,29.5c-3.7,13.1-1,25.1,7.8,35.5
		c4.7,5.5,10.7,9.1,17.5,12.1c0,0-1.8,1.3-2.6,2c-4.8,3.4-10,6.3-14.3,10.3c-8.4,7.7-10.9,17.8-4.2,28.5c3.1,4.9,7.9,7.3,13.7,9.6
		c0,0-3.5,1.9-5.1,2.8c-5.6,3.2-11.3,6-16.5,9.8c-5.7,4.2-6.2,10.7-2.4,16.5c2.8,4.3,6.8,6.8,11.4,8.7c10.5,4.6,21.6,6.2,32.8,6.7
		c29.4,1.5,52-5.7,66-16.1c15.1-11.2,16.2-35.2,2.6-48C865.8,183.1,856.5,180.2,846.6,179.2z M803.4,97.7c0.6-3.3,1.4-6.1,3.2-8.9
		c2.1-3.3,4.8-5.1,8.9-5.1c0.1,0,0.5,0,0.6,0c4.1,0,6.9,1.8,8.9,5.1c1.7,2.8,2.7,5.6,3.2,8.9c1.4,8.2,1.8,16.4,1.5,24.6
		c0.3,8.2-0.1,16.4-1.5,24.6c-0.6,3.3-1.2,5.7-3.2,8.4c-2.3,3.1-4.8,5.4-8.9,5.4c-0.1,0-0.5,0-0.6,0c-4.1,0-6.7-2.2-8.9-5.4
		c-1.9-2.8-2.7-5.1-3.2-8.4c-1.4-8.2-1.8-16.4-1.5-24.6C801.6,114,802,105.8,803.4,97.7z M838.9,245.4c-6.4,3.5-17.8,3.8-27.5,3.9
		c-8.4,0-12.7-1.5-15-2.5c-10.3-4.7-13.7-12.2-13.2-23.1c0.2-3.9,1.7-7.8,2.9-11.5c0.3-0.9,1-2,2-1.9c14.2,0.9,29.4,1.9,43.6,3.2
		c6.7,0.6,12.9,3,16,9.7C851.3,231,847.7,240.6,838.9,245.4z"/>
	<path fill="#FEEE59" d="M524.5,130.5c-7.7-4.6-15.5-8.9-22.9-14c-7.1-4.9-11.7-11.6-11.2-20.8c0.4-7.3,5.1-11,12.3-11.9
		c9.2-1.2,16.1,2.6,22.4,8.5c7.2,6.8,11.8,14.4,16.5,23.4c0.3,0.7,0.8,1.3,1.4,2h2c0,0-1.3-19.1-2.2-28.6c-0.1-1-1.5-2.3-2.6-2.7
		c-16.8-6-33.9-8.4-51.5-4.3c-10.1,2.4-18.8,7.1-24.1,16.4c-7.6,13.3-5,31.1,5.8,42.5c7.8,8.2,17.6,13.2,27.4,18.6
		c8,4.4,16.4,8.3,22.1,16c6,7.9,5.3,22.5-9.4,25.6c-14.3,3-25.3-2.3-34.9-12.9c-6-6.6-9.9-13.6-13.6-21.6c-0.1-0.2-0.2-0.4-0.3-0.6
		h-2.5c0.8,9.6,1.5,19.3,2.4,28.9c0.1,1,1.2,2.2,2.1,2.6c3.2,1.3,6.4,2.6,9.8,3.4c16,4.3,32.2,6.2,48.5,1.8
		c16.4-4.4,28.9-14.9,29.9-33.1c0.5-8.6-1.6-16.5-7-23.3C539.2,139.6,532,134.9,524.5,130.5z"/>
	<path fill="#FEEE59" d="M459.7,85.6v-2.9h-41.6l0,2.9c0,0,10.1-0.1,14.9,1.2c1.5,0.4,2.8,1,3.9,1.8c0.8,0.6,3.6,2.4,3.1,5
		c0,0.2,0,0.3-0.1,0.5l-23.6,72.9c-6.4-15.5-11.8-31-18.2-46c-5.3-12.5-10.6-24.9-15.8-37.5c-0.8-1.8-1.7-2.3-3.6-2.3H366
		c-2.4,0-3.3,0.9-3.9,3c-7.2,24.8-14.4,49.7-21.6,74.5c-0.9,3-1.8,5.9-2.9,9.4l-1-3l0,0c-1.7-4.9-3.3-9.7-5-14.6
		c-5.5-15.8-11-31.6-16.4-47.4c-3.1-9.1,0.1-15,9.4-17.5c0.2-0.1,0.5-0.1,0.8-0.1v-2.9l-67.1,0v2.5c6.9,1.4,9.3,6.8,11.5,12.5
		c5.5,14.3,11,28.6,16.6,42.9c6.1,15.7,12.1,31.4,18.2,47c2.2,5.5,4.4,10.9,6.5,16.4c6.4,0,21.6,0,21.6,0c1.7,0,2.6-0.3,3-2.2
		c0-0.1,0-0.2,0.1-0.2l0,0l21.7-75.8c4.6,10.7,9.1,21.4,13.6,32.1c6.3,14.9,12.7,29.8,19.1,44.6c0.3,0.8,1.6,1.5,2.6,1.5h16.8
		c1.1,0,2.3-1.1,2.6-2c2.9-8.8,5.7-17.6,8.6-26.4l0,0l3.8-11.6c0.3-0.9,0.6-1.8,0.9-2.8c1.6-5.1,3.3-10.1,4.9-15.1l15.4-47.5
		C448.4,92.3,452.3,87.3,459.7,85.6z"/>
	<path fill="#FEEE59" d="M214.5,123.6c-0.6,0-1-0.1-1.6-0.1l0.2-0.1c-8.7,0.1-19.8-8.5-9.2-21.7c4.7-5.7,10.8-11.1,22.5-13.1
		c0,0,6.2-0.7,9.7-0.6c3.4,0.1,6.5,0.7,9.4,1.5l0.9-6.2c-22.3-9.4-57.1-4.8-75.8,18.3c-22.3,27.5-18.2,67.8,9,89.8
		c17.4,14.1,40,17.5,58.5,12.1c14.6-4.3,29.9-15.3,31.9-36.2C272.2,147.6,260.6,126,214.5,123.6z"/>
	<path fill="#FEEE59" d="M1121.5,93.4c-17.4-14.1-40-17.5-58.5-12.1c-14.6,4.3-29.9,15.3-31.9,36.2c-2,19.8,9.6,41.5,55.7,43.8
		c0.6,0,1,0.1,1.6,0.1l-0.2,0.1c8.7-0.1,19.8,8.5,9.2,21.7c-4.7,5.7-10.8,11.1-22.5,13.1c0,0-6.2,0.7-9.7,0.6
		c-3.4-0.1-6.6-0.7-9.4-1.5l-0.9,6.2c22.3,9.4,57,4.8,75.8-18.3C1152.8,155.7,1148.7,115.4,1121.5,93.4z"/>
</g>
</svg>
